<svg width="46" height="45" viewBox="0 0 46 45" fill="none" xmlns="http://www.w3.org/2000/svg">
<path fill-rule="evenodd" clip-rule="evenodd" d="M22.4149 0L0 22.3702L22.4149 45L45.3297 22.1925L22.4149 0ZM23.2492 2.67828L42.9424 21.9011L27.7266 17.8224L23.2492 2.67828ZM3.02588 21.0736L14.3196 14.432L21.4838 2.6713L3.02588 21.0736ZM18.3477 27.5169L29.668 30.4628L22.4205 42.5748L18.3477 27.5169ZM21.7865 42.546L2.89806 23.4962L17.6742 27.3416L21.7865 42.546ZM22.0597 43.5558L21.9924 43.6227L22.0779 43.623L22.0597 43.5558ZM42.9171 22.4194L30.9667 29.1922L27.9264 18.4779L42.9171 22.4194ZM26.5687 18.121L29.7267 29.2498L17.9903 26.1955L14.9825 15.0747L26.5687 18.121ZM40.991 24.9282L24.8122 40.96L30.9062 30.7003L40.991 24.9282ZM2.26811 22.1108L17.3259 26.0288L14.4021 15.0933L2.26811 22.1108ZM26.4054 17.4729L22.1652 2.60776L15.0186 14.4708L26.4054 17.4729Z" fill="url(#paint0_linear_30_75)"/>
<defs>
<linearGradient id="paint0_linear_30_75" x1="-2.69088" y1="18.2189" x2="18.4294" y2="46.8013" gradientUnits="userSpaceOnUse">
<stop stop-color="#2DF3AE"/>
<stop offset="1" stop-color="#0CCBEC"/>
</linearGradient>
</defs>
</svg>
